<?xml version="1.0" encoding="utf-8"?>
<!-- Svg Vector Icons : http://www.onlinewebfonts.com/icon -->
<!DOCTYPE svg PUBLIC "-//W3C//DTD SVG 1.1//EN" "http://www.w3.org/Graphics/SVG/1.1/DTD/svg11.dtd">
<svg version="1.1" xmlns="http://www.w3.org/2000/svg" xmlns:xlink="http://www.w3.org/1999/xlink" x="0px" y="0px" viewBox="0 0 1000 1000" enable-background="new 0 0 1000 1000" xml:space="preserve">
<metadata> Svg Vector Icons : http://www.onlinewebfonts.com/icon </metadata>
<g><g><g><path d="M942.6,507.5c-3,0.2-5.9,0.5-8.8,0.9C936.9,509.2,939.9,509,942.6,507.5z"/><path d="M981.8,370c-106.4-97.7-32.8-190.5,8.2-217c-269.5,106.7-252.4,382-297,410.7c-42.6,28.3-82.4-10.8-102.1-47.9c12.3,47.8-37.8,79.4-74.1,26c9.7,73,34.4,121.4-66.5,94.2c-111-29.9-298.1-120.8-440.3-5.8c83.1-6.3,173.3,59.8,169.2,133.8c58.5-44.4,149.7,13.3,148.3,82.8c27-74.9,146.8-91.9,201.2-23.2C508.9,702,658.5,722.1,690,799.5c-39.3-164.3,80-170.3,146.9-133c-24.3-105.2,15.8-148.8,96.8-158.1C900.8,499.7,851.2,374.9,981.8,370z"/></g></g><g></g><g></g><g></g><g></g><g></g><g></g><g></g><g></g><g></g><g></g><g></g><g></g><g></g><g></g><g></g></g>
</svg>